<?xml version="1.0" encoding="UTF-8"?>
<svg width="24" height="24" viewBox="0 0 24 24" fill="none" xmlns="http://www.w3.org/2000/svg">
<path d="M12.3061 19.5155C13.2774 18.8191 13.9987 17.7806 14.3124 16.6274C14.5322 15.819 14.5357 14.8934 14.053 14.2091C13.5902 13.5532 12.6991 13.2343 11.9251 13.4481C10.5134 13.8385 10.0549 15.6337 11.009 16.7067C11.3718 17.1152 11.9036 17.3686 12.45 17.3936" stroke="#000000" stroke-width="1.5" stroke-linecap="round" stroke-linejoin="round"></path>
<path d="M18.8515 19.5155C19.8228 18.8191 20.5441 17.7806 20.857 16.6274C21.0776 15.819 21.0811 14.8934 20.5984 14.2091C20.1356 13.5532 19.2436 13.2343 18.4705 13.4481C17.0588 13.8385 16.6003 15.6337 17.5544 16.7067C17.9172 17.1152 18.449 17.3686 18.9954 17.3936" stroke="#000000" stroke-width="1.5" stroke-linecap="round" stroke-linejoin="round"></path>
<path d="M7.90913 18.3126H3M20.4547 9.09329H3M7.90913 13.7053H3.00143M20.4547 4.48511H3.00143" stroke="#000000" stroke-width="1.5" stroke-linecap="round" stroke-linejoin="round"></path>
</svg>