<?xml version="1.0" encoding="UTF-8"?>
<svg width="24" height="24" viewBox="0 0 24 24" fill="none" xmlns="http://www.w3.org/2000/svg">
<path fill-rule="evenodd" clip-rule="evenodd" d="M6.56444 18.0727C8.48794 16.6931 9.91621 14.6373 10.5369 12.3528C10.9728 10.7514 10.9806 8.91934 10.0242 7.56307C9.1077 6.2642 7.34182 5.63276 5.81042 6.05697C3.0142 6.83045 2.10548 10.3846 3.99589 12.5095C4.71489 13.319 5.76858 13.821 6.84951 13.8696C6.43018 15.0148 5.82404 16.0909 5.0632 17.0434C5.56232 17.3868 6.06241 17.7312 6.56444 18.0727Z" stroke="#000000" stroke-width="1.5" stroke-linecap="round" stroke-linejoin="round"></path>
<path fill-rule="evenodd" clip-rule="evenodd" d="M16.7441 18.0727C18.6676 16.6931 20.0959 14.6373 20.7166 12.3528C21.1525 10.7514 21.1603 8.91934 20.2039 7.56307C19.2874 6.2642 17.5215 5.63276 15.9901 6.05697C13.1939 6.83045 12.2852 10.3846 14.1756 12.5095C14.8946 13.319 15.9483 13.821 17.0292 13.8696C16.6099 15.0148 16.0037 16.0909 15.2429 17.0434C15.742 17.3868 16.2421 17.7312 16.7441 18.0727Z" stroke="#000000" stroke-width="1.5" stroke-linecap="round" stroke-linejoin="round"></path>
</svg>